# xmcd CD database file
#
# Track frame offsets:
#	150
#	12075
#	24175
#	39475
#	50925
#	59500
#	70750
#	85650
#	99100
#	114050
#	125950
#	139950
#	152200
#	163550
#	174450
#	189000
#	198525
#	211425
#	220700
#	231075
#	240312
#	255850
#	270525
#	281650
#	293100
#
# Disc length: 4099 seconds
#
# Revision: 5
# Processed by: cddbd v1.5.1PL2 Copyright (c) Steve Scherf et al.
# Submitted via: CDex 1.70beta2
#
DISCID=57100119
DTITLE=Various Artist - Country Gold 25 Great Hits
DYEAR=1991
DGENRE=Country
TTITLE0=Don Gibson - Oh Lonesome Me
TTITLE1=Susan Raye - L.A. International Airport
TTITLE2=Bobby Bare - For The Good Times
TTITLE3=Donna Fargo - Funny Face
TTITLE4=Waylon Jennings - Abilene
TTITLE5=Kenny Rogers - Reuben James
TTITLE6=Jeannie C. Riley - Harper Valley P.T.A.
TTITLE7=Ronnie Milsap - Kentucky Woman
TTITLE8=Lynn Anderson - Could I Have This Dance
TTITLE9=Waylon Jennings - Crying
TTITLE10=Freddy Fender - Wasted Days and Wasted Nights
TTITLE11=Lynn Anderson - Stand By Your Man
TTITLE12=Stonewall Jackson - Waterloo
TTITLE13=Donna Fargo - The Happiest Girl In The Whole U.S.A.
TTITLE14=George Hamilton IV - Four Strong Winds
TTITLE15=Lynn Anderson - Snowbird
TTITLE16=Tommy Overstreet - Gwen (Congratulations)
TTITLE17=George Jones - The Race Is On
TTITLE18=Boxcar Willie - Jambalaya
TTITLE19=The Harden Trio - Tippy Toeing
TTITLE20=Anne Murray - There Goes My Everything
TTITLE21=Don Gibson - I Can't Stop Loving You
TTITLE22=Roger Miller - King Of The Road
TTITLE23=Dolly Parton - Makin' Believe
TTITLE24=Mickey Gilley - Rocky Top
EXTD=YEAR: 1991
EXTT0=
EXTT1=
EXTT2=
EXTT3=
EXTT4=
EXTT5=
EXTT6=
EXTT7=
EXTT8=
EXTT9=
EXTT10=
EXTT11=
EXTT12=
EXTT13=
EXTT14=
EXTT15=
EXTT16=
EXTT17=
EXTT18=
EXTT19=
EXTT20=
EXTT21=
EXTT22=
EXTT23=
EXTT24=
PLAYORDER=
